<?xml version="1.0" encoding="UTF-8"?>
<svg width="145px" height="86px" viewBox="0 0 145 86" version="1.1" xmlns="http://www.w3.org/2000/svg" xmlns:xlink="http://www.w3.org/1999/xlink">
    <!-- Generator: Sketch 53.2 (72643) - https://sketchapp.com -->
    <title>This Way /</title>
    <desc>Created with Sketch.</desc>
    <g id="Main" stroke="none" stroke-width="1" fill="none" fill-rule="evenodd">
        <g id="Home-Slide-4" transform="translate(-26.000000, -26.000000)" fill="#000000">
            <g id="Top-Left-Sticky">
                <g id="This-Way-/" transform="translate(26.796000, 26.796400)">
                    <polygon id="Fill-2" points="0.5586 8.7124 0.5586 0.7814 32.7286 0.7814 32.7286 8.7124 21.1676 8.7124 21.1676 39.8764 12.1196 39.8764 12.1196 8.7124"></polygon>
                    <polygon id="Fill-3" points="35.6265 39.8764 35.6265 0.7814 44.6745 0.7814 44.6745 15.7494 59.7535 15.7494 59.7535 0.7814 68.8015 0.7814 68.8015 39.8764 59.7535 39.8764 59.7535 24.1264 44.6745 24.1264 44.6745 39.8764"></polygon>
                    <polygon id="Fill-4" points="75.559 39.8766 84.607 39.8766 84.607 0.7816 75.559 0.7816"></polygon>
                    <path d="M120.9422,28.092 C120.9422,31.666 119.6582,34.682 117.0332,37.084 C114.4072,39.486 110.8332,40.658 106.2542,40.658 C97.0952,40.658 91.3982,36.414 89.1082,27.98 L96.7592,24.294 C98.1562,29.879 100.9472,32.728 106.2542,32.728 C109.7722,32.728 112.0622,30.996 112.0622,28.707 C112.0622,25.802 109.3252,24.071 103.2932,22.954 C95.0842,21.334 91.0072,17.425 91.0072,11.226 C91.0072,7.819 92.2912,5.138 94.8602,3.071 C97.4302,1.005 100.8362,1.98951966e-13 105.0812,1.98951966e-13 C112.7322,1.98951966e-13 117.5352,3.295 120.2722,10.22 L113.5142,14.242 C111.9512,9.662 109.1012,7.372 104.9132,7.372 C101.5622,7.372 99.1612,8.88 99.1612,11.114 C99.1612,13.292 101.6732,14.8 108.4312,16.196 C117.0882,18.039 120.9422,21.614 120.9422,28.092" id="Fill-5"></path>
                    <path d="M10.724,84.9551 L9.23705556e-14,45.8601 L9.551,45.8601 L14.8,67.6421 C15.248,69.5961 15.583,71.1041 15.75,72.0541 L16.644,67.5861 L22.117,45.8601 L31.5,45.8601 L36.973,67.5861 L37.867,72.0541 L38.816,67.6421 L44.066,45.8601 L53.617,45.8601 L42.893,84.9551 L33.343,84.9551 L26.808,59.4321 L20.274,84.9551 L10.724,84.9551 Z" id="Fill-7"></path>
                    <path d="M50.3207,84.9551 L66.2377,45.8601 L74.7267,45.8601 L90.6447,84.9551 L80.8147,84.9551 L77.2967,75.5161 L63.6687,75.5161 L60.1507,84.9551 L50.3207,84.9551 Z M68.8637,61.4421 L66.5167,67.8091 L74.4477,67.8091 L72.1017,61.4421 C71.4877,59.9341 70.9857,58.3701 70.4827,56.8071 L68.8637,61.4421 Z" id="Fill-9"></path>
                    <path d="M107.4484,70.0992 L107.4484,84.9552 L98.4014,84.9552 L98.4014,70.0992 L85.3884,45.8602 L95.5524,45.8602 C95.5524,45.8602 102.6454,60.3252 102.9244,61.2192 L110.2974,45.8602 L120.4054,45.8602 L107.4484,70.0992 Z" id="Fill-11"></path>
                    <polygon id="Fill-14" points="123.6225 84.9551 144.1985 45.8601 135.4855 45.8601 114.9095 84.9551"></polygon>
                </g>
            </g>
        </g>
    </g>
</svg>